<?xml version="1.0" encoding="utf-8"?>
<?xml-stylesheet type="text/xsl" href="rss1.xsl"?>
<rss version="2.0" xmlns:atom="http://www.w3.org/2005/Atom" xmlns:content="http://purl.org/rss/1.0/modules/content/" xmlns:dc="http://purl.org/dc/elements/1.1/" xmlns:media="http://search.yahoo.com/mrss/">
<channel>
 <title>Getty</title>
 <link>http://www.gettyimg.com/</link>
 <atom:link href="http://www.gettyimg.com/" rel="self" type="application/rss+xml" />

 
                <item>
                <title><![CDATA[【Albums (lossy)】Dolby Atmos - French 79 - Teenagers - Dolby Atmos [E-AC-3 JOC 768kbps 16bit/48kHz]]]></title>
                <link><![CDATA[https://sharemania.us/threads/french-79-teenagers-dolby-atmos-e-ac-3-joc-768kbps-16bit-48khz.251067/]]></link>
                <description><![CDATA[<article>
<blockquote class="messageText SelectQuoteContainer ugc baseHtml">
<b>French 79 - Teenagers</b><br>
<br>
<b>Released</b>: 2023<br>
<b>Genre</b>: <a href="https://www.google.com/search?sca_esv=8555417468704b0c&amp;sca_upv=1&amp;rlz=1C1CHBD_enCA972CA972&amp;sxsrf=ADLYWIKhl5SagTwfuHAbSpqNcbu_fhCTRg:1722003932950&amp;q=&amp;si=ACC90nwLLwns5sISZcdzuISy7t-NHozt8Cbt6G3WNQfC9ekAgHwvfG7frjLYPoT7YmhCJYSD0RpCAfFDS1yL9u4_AcmCOJTYkGmM2DPWEVXvaP8pTCjtVdeFdU2TWgFSF0-i3OXwXZqY5YtkziEm6lBYGV4mol0xRxqBm5F9AcUsF01q--5Kp0PL2yd3Iob8A6w5mc0ZEVTnBV9VpA_KhySK5bRutyIoLJXwkjk2vqTYkt1ZHsGw8nWTB3mazwAKzE1cmyeuDzMGss7pfJYfRrI-1hY_2ktKZw%3D%3D&amp;sa=X&amp;ved=2ahUKEwjsrebF9MSHAxVuCjQIHULoDlMQmxMoAHoECB8QAg" target="_blank" class="externalLink" rel="nofollow">French Indie</a>, <a href="https://www.google.com/search?sca_esv=8555417468704b0c&amp;sca_upv=1&amp;rlz=1C1CHBD_enCA972CA972&amp;sxsrf=ADLYWIKhl5SagTwfuHAbSpqNcbu_fhCTRg:1722003932950&amp;q=&amp;si=ACC90nwLLwns5sISZcdzuISy7t-NHozt8Cbt6G3WNQfC9ekAgLkSrzjqiy07ePAna7Y5H8HfyMUP_eUtSTPnifU9t9UVLp7F8gPIqGqUIwOZxT_DsJ-2TzVyVeP9D4D_DQPrHIs0LAM4UqgcmjJPVaJpURC4BhIo3Gyhb1ZEmM9974iSYYqchhW_0B3z9Dbze9Dur5gNEBwOPzkXlIWDWCqI1SftblsdeGPHLkZoGgG9Qvz0TUpH8fJoesG5rc1NRTmSMXhoUrnal2KIpFrEcGJsQSIj0uMYRA%3D%3D&amp;sa=X&amp;ved=2ahUKEwjsrebF9MSHAxVuCjQIHULoDlMQmxMoAXoECB8QAw" target="_blank" class="externalLink" rel="nofollow">Dance/Electronic</a><br>
<b>Source</b>: Apple Music Rip<br>
<br>
<img src="https://i.imgur.com/PdHqq3r.jpeg" class="bbCodeImage LbImage" alt="[​IMG]" data-url="https://i.imgur.com/PdHqq3r.jpeg" style=""> <br>
<br>
I found this artist/album while searching literally "best albums in dolby atmos". What i have listened to of the album so far i am digging! Hope others might enjoy it too!<br>
<br>
<div class="ToggleTriggerAnchor bbCodeSpoilerContainer">
<button type="button" class="button bbCodeSpoilerButton ToggleTrigger Tooltip JsOnly" data-target="> .SpoilerTarget"><span>Spoiler: <span class="SpoilerTitle">Tracklist</span></span></button>
<div class="SpoilerTarget bbCodeSpoilerText"><ol>
<li><i>One for Wendy</i></li>
<li><i>Burning Legend</i></li>
<li><i>Teenagers</i></li>
<li><i>FOIX</i> *</li>
<li><i>Heroes</i></li>
<li><i>Memories</i></li>
<li><i>Romantica</i></li>
<li><i>Graceful</i></li>
<li><i>Life is Like</i></li>
<li><i>You Always Say (Feat. Olivia Merilahti, Prudence)</i></li>
<li><i>Freedom</i> *</li>
<li><i>Walking on Mars</i></li>
</ol><i>* not present on the vinyl version</i></div>
</div><br>
<div class="ToggleTriggerAnchor bbCodeSpoilerContainer">
<button type="button" class="button bbCodeSpoilerButton ToggleTrigger Tooltip JsOnly" data-target="> .SpoilerTarget"><span>Spoiler: <span class="SpoilerTitle">Mediainfo</span></span></button>
<div class="SpoilerTarget bbCodeSpoilerText">General<br>
Complete name : F:\BLURAY MUSIC\0_Audio Only\0_ATMOS\French 79\Teenagers\01. One for Wendy.m4a<br>
Format : MPEG-4<br>
Format profile : Base Media / Version 2<br>
Codec ID : mp42 (isom/M4A /mp42/dby1)<br>
File size : 31.4 MiB<br>
Duration : 4 min 47 s<br>
Overall bit rate mode : Constant<br>
Overall bit rate : 916 kb/s<br>
Album : Teenagers<br>
Album/Performer : French 79<br>
Part/Position : 1<br>
Part/Total : 1<br>
Track name : One for Wendy<br>
Track name/Position : 1<br>
Track name/Total : 12<br>
Performer : French 79<br>
Composer : Simon Henner<br>
Genre : Electronic<br>
Recorded date : 2023-05-05<br>
Encoded date : 2024-07-26 11:32:29 UTC<br>
Tagged date : 2024-07-26 11:32:29 UTC<br>
ISRC : FRR642201725<br>
Copyright : ℗ 2023 IN/EX, le label de Grand Bonheur<br>
Cover : Yes<br>
Rating : None<br>
com : Simon Henner<br>
UPC : 3701421562364<br>
trk : 1<br>
Audio<br>
ID : 1<br>
Format : E-AC-3 JOC<br>
Format/Info : Enhanced AC-3 with Joint Object Coding<br>
Commercial name : Dolby Digital Plus with Dolby Atmos<br>
Codec ID : ec-3<br>
Duration : 4 min 47 s<br>
Bit rate mode : Constant<br>
Bit rate : 768 kb/s<br>
Maximum bit rate : 811 kb/s<br>
Channel(s) : 6 channels<br>
Channel layout : L R C LFE Ls Rs<br>
Sampling rate : 48.0 kHz<br>
Frame rate : 31.250 FPS (1536 SPF)<br>
Compression mode : Lossy<br>
Stream size : 26.3 MiB (84%)<br>
Title : One for Wendy<br>
Service kind : Complete Main<br>
Default : Yes<br>
Alternate group : 1<br>
Encoded date : 2024-07-26 11:32:29 UTC<br>
Tagged date : 2024-07-26 11:32:29 UTC<br>
Complexity index : 16<br>
Number of dynamic objects : 15<br>
Bed channel count : 1 channel<br>
Bed channel configuration : LFE<br>
Dialog Normalization : -18 dB<br>
compr : -0.28 dB<br>
dmixmod : Lo/Ro<br>
ltrtcmixlev : -3.0 dB<br>
ltrtsurmixlev : -3.0 dB<br>
lorocmixlev : -3.0 dB<br>
lorosurmixlev : -3.0 dB<br>
dialnorm_Average : -18 dB<br>
dialnorm_Minimum : -18 dB<br>
dialnorm_Maximum : -18 dB</div>
</div><br>
<br>
<div class="bbCodeBlock bbCodeVfcHH HiddenContent">
<div class="attribution type">Hidden Content:</div>
<blockquote>You must reply before you can see the hidden data contained here.</blockquote>
</div>
<div class="bbCodeBlock bbCodeVfcHH HiddenContent">
<div class="attribution type">Hidden Content:</div>
<blockquote>You must reply before you can see the hidden data contained here.</blockquote>
</div>
<div class="bbCodeBlock bbCodeVfcHH HiddenContent">
<div class="attribution type">Hidden Content:</div>
<blockquote>You must either reply or click 'Like' to see the hidden information contained here.</blockquote>
</div>
<div class="messageTextEndMarker">&nbsp;</div>
</blockquote>
</article>]]></description>
                <author><![CDATA[schism]]></author>
                </item>

                
                <item>
                <title><![CDATA[【BLU-RAY &amp; BD RIP】[1080i] Nakagawa Shōko - Type:Wild|Pokemon|Official Cut|Textless]]></title>
                <link><![CDATA[https://sharemania.us/threads/1080i-nakagawa-sh%C5%8Dko-type-wild-pokemon-official-cut-textless.251068/]]></link>
                <description><![CDATA[<article>
<blockquote class="messageText SelectQuoteContainer ugc baseHtml">
<img src="https://www.imgbly.com/ib/WNrOCfl9UC.jpg" class="bbCodeImage LbImage" alt="[​IMG]" data-url="https://www.imgbly.com/ib/WNrOCfl9UC.jpg" style=""> <br>
<img src="https://www.imgbly.com/ib/fjEiTPI6wF.jpg" class="bbCodeImage LbImage" alt="[​IMG]" data-url="https://www.imgbly.com/ib/fjEiTPI6wF.jpg" style=""> <br>
<img src="https://www.imgbly.com/ib/bZHlSnbgCs.jpg" class="bbCodeImage LbImage" alt="[​IMG]" data-url="https://www.imgbly.com/ib/bZHlSnbgCs.jpg" style=""> <br>
<br>
<div class="ToggleTriggerAnchor bbCodeSpoilerContainer">
<button type="button" class="button bbCodeSpoilerButton ToggleTrigger Tooltip JsOnly" data-target="> .SpoilerTarget"><span>Spoiler: <span class="SpoilerTitle">info</span></span></button>
<div class="SpoilerTarget bbCodeSpoilerText">Complete name : J:\Type Wild.mkv<br>
Format : Matroska<br>
Format version : Version 4<br>
File size : 332 MiB<br>
Duration : 45 min 18 s<br>
Overall bit rate mode : Variable<br>
Overall bit rate : 1 024 kb/s<br>
Writing application : Lavf58.29.100<br>
Writing library : Lavf58.29.100<br>
ErrorDetectionType : Per level 1<br>
<br>
Video<br>
ID : 1<br>
Format : HEVC<br>
Format/Info : High Efficiency Video Coding<br>
Format profile : Main@L4@Main<br>
Codec ID : V_MPEGH/ISO/HEVC<br>
Duration : 45 min 18 s<br>
Bit rate : 8 739 kb/s<br>
Width : 1 920 pixels<br>
Height : 1 080 pixels<br>
Display aspect ratio : 16:9<br>
Frame rate mode : Variable<br>
Frame rate : 37.310 FPS<br>
Original frame rate : 29.970 (30000/1001) FPS<br>
Color space : YUV<br>
Chroma subsampling : 4:2:0<br>
Bit depth : 8 bits<br>
Bits/(Pixel*Frame) : 0.113<br>
Stream size : 3.44 GiB<br>
Writing library : x265 3.5+20-17839cc0d:[Windows][GCC 5.4.0][64 bit] 8bit+10bit<br>
Encoding settings : cpuid=1111039 / frame-threads=3 / numa-pools=8 / wpp / no-pmode / no-pme / no-psnr / no-ssim / log-level=2 / input-csp=1 / input-res=1920x1080 / interlace=0 / total-frames=0 / level-idc=0 / high-tier=1 / uhd-bd=0 / ref=2 / no-allow-non-conformance / no-repeat-headers / annexb / no-aud / no-eob / no-eos / no-hrd / info / hash=0 / no-temporal-layers / open-gop / min-keyint=25 / keyint=250 / gop-lookahead=0 / bframes=4 / b-adapt=0 / b-pyramid / bframe-bias=0 / rc-lookahead=15 / lookahead-slices=6 / scenecut=40 / no-hist-scenecut / radl=0 / no-splice / no-intra-refresh / ctu=64 / min-cu-size=8 / no-rect / no-amp / max-tu-size=32 / tu-inter-depth=1 / tu-intra-depth=1 / limit-tu=0 / rdoq-level=0 / dynamic-rd=0.00 / no-ssim-rd / signhide / no-tskip / nr-intra=0 / nr-inter=0 / no-constrained-intra / strong-intra-smoothing / max-merge=2 / limit-refs=3 / no-limit-modes / me=1 / subme=1 / merange=57 / temporal-mvp / no-frame-dup / no-hme / weightp / no-weightb / no-analyze-src-pics / deblock=0:0 / sao / no-sao-non-deblock / rd=2 / selective-sao=4 / early-skip / rskip / fast-intra / no-tskip-fast / no-cu-lossless / no-b-intra / no-splitrd-skip / rdpenalty=0 / psy-rd=2.00 / psy-rdoq=0.00 / no-rd-refine / no-lossless / cbqpoffs=0 / crqpoffs=0 / rc=crf / crf=16.0 / qcomp=0.60 / qpstep=4 / stats-write=0 / stats-read=0 / ipratio=1.40 / pbratio=1.30 / aq-mode=2 / aq-strength=1.00 / cutree / zone-count=0 / no-strict-cbr / qg-size=32 / no-rc-grain / qpmax=69 / qpmin=0 / no-const-vbv / sar=1 / overscan=0 / videoformat=5 / range=0 / colorprim=2 / transfer=2 / colormatrix=2 / chromaloc=0 / display-window=0 / cll=0,0 / min-luma=0 / max-luma=255 / log2-max-poc-lsb=8 / vui-timing-info / vui-hrd-info / slices=1 / no-opt-qp-pps / no-opt-ref-list-length-pps / no-multi-pass-opt-rps / scenecut-bias=0.05 / hist-threshold=0.03 / no-opt-cu-delta-qp / no-aq-motion / no-hdr10 / no-hdr10-opt / no-dhdr10-opt / no-idr-recovery-sei / analysis-reuse-level=0 / analysis-save-reuse-level=0 / analysis-load-reuse-level=0 / scale-factor=0 / refine-intra=0 / refine-inter=0 / refine-mv=1 / refine-ctu-distortion=0 / no-limit-sao / ctu-info=0 / no-lowpass-dct / refine-analysis-type=0 / copy-pic=1 / max-ausize-factor=1.0 / no-dynamic-refine / no-single-sei / no-hevc-aq / no-svt / no-field / qp-adaptation-range=1.00 / scenecut-aware-qp=0conformance-window-offsets / right=0 / bottom=0 / decoder-max-rate=0 / no-vbv-live-multi-pass<br>
Default : Yes<br>
Forced : No<br>
Color range : Limited<br>
<br>
Audio<br>
ID : 2<br>
Format : FLAC<br>
Format/Info : Free Lossless Audio Codec<br>
Codec ID : A_FLAC<br>
Duration : 45 min 18 s<br>
Bit rate mode : Variable<br>
Bit rate : 1 821 kb/s<br>
Channel(s) : 2 channels<br>
Channel layout : L R<br>
Sampling rate : 48.0 kHz<br>
Frame rate : 12.968 FPS (3701 SPF)<br>
Bit depth : 24 bits<br>
Compression mode : Lossless<br>
Delay relative to video : 89 ms<br>
Stream size : 735 MiB<br>
Default : Yes<br>
Forced : No</div>
</div><br>
<div class="bbCodeBlock bbCodeVfcHH HiddenContent">
<div class="attribution type">Hidden Content:</div>
<blockquote>You must reply before you can see the hidden data contained here.</blockquote>
</div>
<div class="messageTextEndMarker">&nbsp;</div>
</blockquote>
</article>]]></description>
                <author><![CDATA[Cealy921]]></author>
                </item>

                </channel></rss>